#!OML:ASF F:\VICON\USERDATA\INSTALL\rory3\rory3.ASF
:FULLY-SPECIFIED
:DEGREES
1
root 3.77051 17.4971 4.31549 22.317 -16.2773 0.608419
lowerback -13.7682 3.90839 2.75235
upperback -14.597 4.85917 0.175396
thorax -7.77585 2.15199 -0.9996
lowerneck -2.23847 18.3232 13.7791
upperneck 8.99972 23.1856 6.53528
head 4.23805 12.1352 1.21516
rclavicle -4.01545e-014 -3.33958e-014
rhumerus -2.23063 -25.1206 20.6283
rradius 121.755
rwrist -64.6457
rhand -6.27583 -47.5817
rfingers 7.12502
rthumb 19.5672 -76.617
lclavicle -4.01545e-014 -3.33958e-014
lhumerus 29.252 23.6901 -23.6405
lradius 31.7398
lwrist 33.7205
lhand -24.945 -19.5382
lfingers 7.12502
lthumb 1.5647 10.4358
rfemur -1.36932 3.40118 -7.65435
rtibia 0
rfoot -31.0489 -18.5885
rtoes 55.037
lfemur -22.2069 -1.24699 -28.8136
ltibia 15.4432
lfoot -13.3696 11.2099
ltoes 8.3499
2
root 3.77044 17.4945 4.31829 22.2823 -16.2737 0.566458
lowerback -13.7626 3.91901 2.81911
upperback -14.5956 4.8674 0.160665
thorax -7.77066 2.14914 -1.05153
lowerneck -2.16317 18.3097 13.9312
upperneck 9.02147 23.1768 6.44564
head 4.26597 12.1324 1.16754
rclavicle 5.76476e-014 6.44062e-014
rhumerus -2.138 -24.8804 20.2517
rradius 121.712
rwrist -64.2068
rhand -6.34385 -47.5289
rfingers 7.12502
rthumb 19.5018 -76.5708
lclavicle 5.76476e-014 6.44062e-014
lhumerus 29.2296 23.5697 -23.7603
lradius 31.7245
lwrist 33.8021
lhand -24.6733 -19.599
lfingers 7.12502
lthumb 1.82712 10.3729
rfemur -1.3001 3.43484 -7.60217
rtibia 1.90833e-014
rfoot -31.1167 -18.3954
rtoes 55.0369
lfemur -22.2435 -1.17157 -28.7995
ltibia 15.638
lfoot -13.4892 11.1934
ltoes 8.19053
3
root 3.77037 17.4897 4.32537 22.249 -16.3834 0.552929
lowerback -13.8178 3.95949 2.83889
upperback -14.5821 4.91453 0.135045
thorax -7.71978 2.17036 -1.08163
lowerneck -2.18152 18.3347 14.0576
upperneck 9.13214 23.1932 6.43647
head 4.33073 12.1494 1.16606
rclavicle 1.86858e-014 -9.54166e-015
rhumerus -2.27666 -25.0046 20.5849
rradius 121.755
rwrist -64.5458
rhand -6.73 -47.7263
rfingers 7.12502
rthumb 19.1305 -76.8054
lclavicle 1.86858e-014 -9.54166e-015
lhumerus 29.1989 23.4774 -23.8601
lradius 31.752
lwrist 34.0718
lhand -24.6602 -19.6034
lfingers 7.12502
lthumb 1.83972 10.3684
rfemur -1.2767 3.54621 -7.63694
rtibia 1.59028e-014
rfoot -31.7071 -17.4155
rtoes 55.2351
lfemur -22.26 -1.25 -28.795
ltibia 15.8011
lfoot -13.589 11.4018
ltoes 8.07614
4
root 3.77055 17.488 4.33318 22.2551 -16.4523 0.463396
lowerback -13.9051 4.00399 2.92926
upperback -14.5326 4.96102 0.145698
thorax -7.60824 2.18858 -1.10823
lowerneck -2.35856 18.3716 14.0996
upperneck 9.62088 23.1809 6.52647
head 4.08874 12.1776 1.14374
rclavicle -2.14687e-014 -1.59028e-014
rhumerus -2.15866 -24.9191 20.2482
rradius 121.703
rwrist -64.272
rhand -6.964 -47.8516
rfingers 7.12502
rthumb 18.9054 -76.9529
lclavicle -2.14687e-014 -1.59028e-014
lhumerus 29.097 23.3782 -23.9901
lradius 31.8649
lwrist 34.6636
lhand -24.0644 -19.5188
lfingers 7.12502
lthumb 2.4152 10.4473
rfemur -1.27605 3.64133 -7.57867
rtibia 1.59028e-014
rfoot -32.0489 -16.901
rtoes 55.3561
lfemur -22.2916 -1.26057 -28.7148
ltibia 15.9546
lfoot -13.7083 11.5175
ltoes 8.01223
5
root 3.77151 17.4894 4.33594 22.279 -16.37 0.367408
lowerback -13.9555 4.01012 3.05133
upperback -14.5129 4.9574 0.160793
thorax -7.55088 2.17796 -1.1552
lowerneck -2.43733 18.3718 14.0129
upperneck 9.62738 23.1625 6.6402
head 4.07932 12.1716 1.18788
rclavicle 4.87022e-014 5.48646e-014
rhumerus -2.37859 -25.2446 20.7443
rradius 121.754
rwrist -64.8324
rhand -6.9634 -47.8399
rfingers 7.12502
rthumb 18.906 -76.9411
lclavicle 4.87022e-014 5.48646e-014
lhumerus 29.0312 23.2794 -24.0559
lradius 31.9843
lwrist 35.0942
lhand -23.0028 -19.3594
lfingers 7.12502
lthumb 3.44036 10.5926
rfemur -1.24299 3.60894 -7.43487
rtibia 0
rfoot -31.8646 -17.2848
rtoes 55.2965
lfemur -22.34 -1.2101 -28.6185
ltibia 16.0787
lfoot -13.7948 11.4421
ltoes 8.11162
6
root 3.77267 17.4914 4.33592 22.2978 -16.2782 0.231391
lowerback -13.9173 4.0193 3.21086
upperback -14.5449 4.96058 0.183271
thorax -7.59918 2.16514 -1.22263
lowerneck -2.2426 18.3406 13.8928
upperneck 9.05924 23.1868 6.6552
head 4.25996 12.1465 1.24434
rclavicle -1.98785e-014 -3.10104e-014
rhumerus -2.40931 -25.3038 20.8408
rradius 121.732
rwrist -65.0222
rhand -6.86162 -47.7273
rfingers 7.12502
rthumb 19.0039 -76.8189
lclavicle -1.98785e-014 -3.10104e-014
lhumerus 29.0002 23.1208 -24.1096
lradius 32.0723
lwrist 35.3663
lhand -22.3723 -19.4522
lfingers 7.12502
lthumb 4.0493 10.4891
rfemur -1.20033 3.58995 -7.2427
rtibia -4.13472e-014
rfoot -31.6472 -17.6533
rtoes 55.1895
lfemur -22.353 -1.23884 -28.4562
ltibia 16.1427
lfoot -13.8386 11.4407
ltoes 8.42363
7
root 3.77243 17.4908 4.33687 22.285 -16.3087 0.186731
lowerback -13.8783 4.05668 3.25479
upperback -14.5656 5.0085 0.168334
thorax -7.63776 2.18346 -1.26234
lowerneck -2.05929 18.3161 13.884
upperneck 8.86381 23.2013 6.62324
head 4.15588 12.1409 1.1989
rclavicle 1.76918e-014 1.19271e-014
rhumerus -2.39416 -25.3182 20.765
rradius 121.692
rwrist -65.0643
rhand -6.68889 -47.7703
rfingers 7.12502
rthumb 19.17 -76.8455
lclavicle 1.76918e-014 1.19271e-014
lhumerus 29.1023 23.0845 -24.0393
lradius 32.0534
lwrist 35.4764
lhand -22.1581 -19.7982
lfingers 7.12502
lthumb 4.25611 10.139
rfemur -1.18012 3.64277 -7.19992
rtibia 0
rfoot -31.6817 -17.5241
rtoes 55.1634
lfemur -22.3278 -1.28513 -28.4011
ltibia 16.1474
lfoot -13.8432 11.52
ltoes 9.44605
8
root 3.77074 17.489 4.33678 22.2504 -16.4045 0.297547
lowerback -13.9069 4.07044 3.10332
upperback -14.525 5.0353 0.138336
thorax -7.58232 2.21075 -1.20523
lowerneck -2.12818 18.3439 13.8316
upperneck 8.89147 23.224 6.67339
head 4.16533 12.1543 1.23037
rclavicle 2.54444e-014 1.11319e-014
rhumerus -2.36491 -25.4646 20.6913
rradius 121.631
rwrist -64.9409
rhand -6.49267 -47.7785
rfingers 7.12502
rthumb 19.3587 -76.8349
lclavicle 2.54444e-014 1.11319e-014
lhumerus 29.206 23.2131 -23.8888
lradius 31.9924
lwrist 35.5471
lhand -22.1715 -20.0838
lfingers 7.12502
lthumb 4.24318 9.85371
rfemur -1.1962 3.68674 -7.34116
rtibia 6.36111e-015
rfoot -31.5329 -17.6518
rtoes 55.09
lfemur -22.3066 -1.34779 -28.5074
ltibia 16.1066
lfoot -13.8645 11.5787
ltoes 10.5326
